<svg width="34" height="30" viewBox="0 0 34 30" fill="none" xmlns="http://www.w3.org/2000/svg">
<path d="M26.9999 13.3333C26.9999 11.735 25.8666 10.3983 24.3649 10.0767C24.9649 9.075 25.3333 7.91667 25.3333 6.66667C25.3333 2.99 22.3433 0 18.6666 0C16.1383 0 13.9649 1.42833 12.8333 3.50667C11.7016 1.42833 9.52825 0 6.99992 0C3.32325 0 0.333252 2.99 0.333252 6.66667C0.333252 8.17 0.853252 9.545 1.69492 10.66C1.27423 10.9676 0.931791 11.3699 0.695252 11.8343C0.458714 12.2987 0.334709 12.8122 0.333252 13.3333V26.6667C0.333252 28.505 1.82825 30 3.66659 30H23.6666C25.5049 30 26.9999 28.505 26.9999 26.6667V22.27L33.6666 25.6033V13.9367L26.9999 17.27V13.3333ZM18.6666 3.33333C20.5049 3.33333 21.9999 4.82833 21.9999 6.66667C21.9999 8.505 20.5049 10 18.6666 10C16.8283 10 15.3333 8.505 15.3333 6.66667C15.3333 4.82833 16.8283 3.33333 18.6666 3.33333ZM6.99992 3.33333C8.83825 3.33333 10.3333 4.82833 10.3333 6.66667C10.3333 8.505 8.83825 10 6.99992 10C5.16159 10 3.66659 8.505 3.66659 6.66667C3.66659 4.82833 5.16159 3.33333 6.99992 3.33333ZM3.66659 26.6667V13.3333H23.6666L23.6699 26.6667H3.66659Z" fill="#247BA0"/>
</svg>
