<svg width="37" height="35" viewBox="0 0 37 35" fill="none" xmlns="http://www.w3.org/2000/svg">
<path d="M29.576 12.8987C30.9947 12.898 32.3834 13.304 33.5753 14.0678C34.7672 14.8317 35.7117 15.9209 36.2952 17.2048C36.8787 18.4886 37.0765 19.9124 36.8648 21.3051C36.6531 22.6978 36.0409 24.0002 35.1017 25.0559V33.4678C35.1022 33.7026 35.042 33.9336 34.9267 34.1387C34.8115 34.3438 34.6452 34.516 34.4437 34.639C34.2422 34.7619 34.0123 34.8315 33.776 34.841C33.5397 34.8504 33.3049 34.7995 33.0941 34.693L32.9283 34.5925L29.576 32.2664L26.2237 34.5925C26.0301 34.7267 25.8051 34.8094 25.5701 34.8327C25.3352 34.856 25.0981 34.8191 24.8816 34.7256C24.6651 34.632 24.4763 34.4849 24.3334 34.2984C24.1904 34.1118 24.098 33.892 24.0649 33.6598L24.0521 33.4678V25.0522C23.1142 23.9965 22.503 22.6946 22.2919 21.3027C22.0807 19.9108 22.2786 18.4879 22.8618 17.2048C23.445 15.9218 24.3886 14.833 25.5796 14.0692C26.7705 13.3054 28.1582 12.899 29.576 12.8987ZM32.3389 26.9979C31.461 27.3504 30.5229 27.531 29.576 27.5301C28.6291 27.531 27.6909 27.3504 26.8131 26.9979V30.8363L28.7858 29.4703C28.9877 29.3298 29.2239 29.2455 29.4697 29.2262C29.7156 29.2069 29.9621 29.2533 30.1838 29.3606L30.368 29.4703L32.3389 30.8363V26.9979ZM31.8784 0.105225C33.1683 0.105161 34.4096 0.593653 35.3491 1.47106C36.2887 2.34847 36.8557 3.54868 36.9345 4.8269L36.9437 5.13412L36.9455 14.7274C36.1985 13.7401 35.2589 12.9123 34.1826 12.2934L34.1808 5.13412C34.181 4.56822 33.9699 4.02233 33.5881 3.60211C33.2063 3.18188 32.6811 2.91718 32.1141 2.85923L31.8784 2.84826H5.17051C4.60051 2.848 4.05068 3.05766 3.62741 3.43668C3.20414 3.8157 2.93753 4.33712 2.87916 4.90005L2.86811 5.13412V22.5067C2.86811 23.6898 3.77433 24.6645 4.93474 24.7797L5.17051 24.7925L21.6041 24.7943L21.8307 25.1656L22.0775 25.524L22.2083 25.6959L22.2064 27.5356H5.17051C3.88034 27.5356 2.63877 27.0468 1.69918 26.1691C0.759587 25.2913 0.192783 24.0906 0.114434 22.812L0.105225 22.5067V5.13412C0.105161 3.85351 0.597188 2.62112 1.48094 1.68832C2.3647 0.755528 3.5736 0.192602 4.86107 0.114368L5.17051 0.105225H31.8784ZM29.576 15.6418C28.3545 15.6418 27.183 16.1235 26.3192 16.9811C25.4555 17.8386 24.9703 19.0017 24.9703 20.2144C24.9703 21.4271 25.4555 22.5902 26.3192 23.4477C27.183 24.3053 28.3545 24.787 29.576 24.787C30.7975 24.787 31.969 24.3053 32.8327 23.4477C33.6965 22.5902 34.1817 21.4271 34.1817 20.2144C34.1817 19.0017 33.6965 17.8386 32.8327 16.9811C31.969 16.1235 30.7975 15.6418 29.576 15.6418ZM17.143 17.4705C17.493 17.4706 17.8299 17.6026 18.0857 17.8398C18.3414 18.077 18.497 18.4018 18.5208 18.7485C18.5447 19.0952 18.4351 19.4379 18.2142 19.7075C17.9933 19.977 17.6776 20.1533 17.3309 20.2007L17.143 20.2135H8.85435C8.50435 20.2134 8.16743 20.0814 7.91167 19.8441C7.65592 19.6069 7.50041 19.2821 7.47655 18.9354C7.45269 18.5888 7.56227 18.246 7.78315 17.9764C8.00403 17.7069 8.31974 17.5306 8.66648 17.4833L8.85435 17.4705H17.143ZM28.1945 7.41266C28.5445 7.41277 28.8815 7.54478 29.1372 7.78201C29.393 8.01924 29.5485 8.34401 29.5723 8.6907C29.5962 9.03738 29.4866 9.38014 29.2657 9.6497C29.0449 9.91926 28.7292 10.0955 28.3824 10.1429L28.1945 10.1557H8.85435C8.50435 10.1556 8.16743 10.0236 7.91167 9.78635C7.65592 9.54912 7.50041 9.22435 7.47655 8.87766C7.45269 8.53098 7.56227 8.18823 7.78315 7.91866C8.00403 7.6491 8.31974 7.47283 8.66648 7.42546L8.85435 7.41266H28.1945Z" fill="#247BA0"/>
</svg>
