<svg width="34" height="35" viewBox="0 0 34 35" fill="none" xmlns="http://www.w3.org/2000/svg">
<path d="M16.9833 0.421143C7.78325 0.421143 0.333252 8.0843 0.333252 17.5264C0.333252 26.9685 7.78325 34.6317 16.9833 34.6317C26.1999 34.6317 33.6666 26.9685 33.6666 17.5264C33.6666 8.0843 26.1999 0.421143 16.9833 0.421143ZM16.9999 31.2106C9.63325 31.2106 3.66659 25.0869 3.66659 17.5264C3.66659 9.96588 9.63325 3.8422 16.9999 3.8422C24.3666 3.8422 30.3333 9.96588 30.3333 17.5264C30.3333 25.0869 24.3666 31.2106 16.9999 31.2106Z" fill="#247BA0"/>
<path d="M17.8333 8.97363H15.3333V19.2368L24.0833 24.6249L25.3333 22.521L17.8333 17.9539V8.97363Z" fill="#247BA0"/>
</svg>
