<svg width="22" height="38" viewBox="0 0 22 38" fill="none" xmlns="http://www.w3.org/2000/svg">
<path d="M1.25757 1.80751C0.956286 2.10818 0.717257 2.46532 0.554167 2.85848C0.391077 3.25164 0.307129 3.67311 0.307129 4.09876C0.307129 4.52441 0.391077 4.94588 0.554167 5.33904C0.717257 5.7322 0.956286 6.08934 1.25757 6.39001L13.8676 19L1.25757 31.61C0.649895 32.2177 0.308505 33.0419 0.308505 33.9013C0.308505 34.7606 0.649895 35.5848 1.25757 36.1925C1.86525 36.8002 2.68944 37.1416 3.54882 37.1416C4.40821 37.1416 5.23239 36.8002 5.84007 36.1925L20.7576 21.275C21.0589 20.9743 21.2979 20.6172 21.461 20.224C21.6241 19.8309 21.708 19.4094 21.708 18.9838C21.708 18.5581 21.6241 18.1366 21.461 17.7435C21.2979 17.3503 21.0589 16.9932 20.7576 16.6925L5.84007 1.77501C4.60507 0.54001 2.52507 0.540011 1.25757 1.80751Z" fill="white"/>
</svg>
